<svg xmlns="http://www.w3.org/2000/svg" xmlns:xlink="http://www.w3.org/1999/xlink" width="1080" zoomAndPan="magnify" viewBox="0 0 810 809.999993" height="1080" preserveAspectRatio="xMidYMid meet" version="1.0"><defs><clipPath id="7091926402"><path d="M 93.488281 283.5 L 716.183594 283.5 L 716.183594 810 L 93.488281 810 Z M 93.488281 283.5 " clip-rule="nonzero"/></clipPath><clipPath id="524e9cc2ab"><path d="M 93.488281 0 L 716 0 L 716 622.496094 L 93.488281 622.496094 Z M 93.488281 0 " clip-rule="nonzero"/></clipPath><clipPath id="1ab7a5d0a7"><path d="M 404.835938 0 C 232.882812 0 93.488281 139.351562 93.488281 311.246094 C 93.488281 483.144531 232.882812 622.496094 404.835938 622.496094 C 576.789062 622.496094 716.183594 483.144531 716.183594 311.246094 C 716.183594 139.351562 576.789062 0 404.835938 0 Z M 404.835938 0 " clip-rule="nonzero"/></clipPath></defs><g clip-path="url(#7091926402)"><path fill="#ffffff" d="M 93.488281 283.5 L 716.652344 283.5 L 716.652344 810 L 93.488281 810 Z M 93.488281 283.5 " fill-opacity="1" fill-rule="nonzero"/></g><g clip-path="url(#524e9cc2ab)"><g clip-path="url(#1ab7a5d0a7)"><path fill="#ffffff" d="M 93.488281 0 L 715.984375 0 L 715.984375 622.496094 L 93.488281 622.496094 Z M 93.488281 0 " fill-opacity="1" fill-rule="nonzero"/></g></g></svg>